<svg xmlns="http://www.w3.org/2000/svg" viewBox="0 0 704.23 367.36"><defs><style>.cls-1{fill:#fff;stroke-width:3px;}.cls-1,.cls-7,.cls-8{stroke:#344449;}.cls-1,.cls-2,.cls-7,.cls-8{stroke-miterlimit:10;}.cls-2,.cls-4,.cls-8{fill:#eb811b;}.cls-2{stroke:#eb811b;stroke-width:5px;opacity:0.56;}.cls-3,.cls-4,.cls-8{font-size:45px;}.cls-3{fill:#344449;}.cls-3,.cls-5,.cls-6,.cls-9{font-family:Luciole-Italic, Luciole;font-style:italic;}.cls-4,.cls-8{font-family:Luciole-Math, Luciole Math;letter-spacing:-0.07em;}.cls-5,.cls-9{font-size:30px;}.cls-5{letter-spacing:-0.08em;}.cls-7{fill:none;stroke-width:2px;}.cls-8{stroke-width:0.5px;}.cls-9{letter-spacing:-0.07em;}</style></defs><g id="Calque_2" data-name="Calque 2"><g id="Calque_1-2" data-name="Calque 1"><path class="cls-1" d="M637.21,212.69c-5,28.44-4.88,48.59-21.05,59.65-27.27,18.66-60.64-16.1-114-12.28-52.33,3.74-64,40.24-109.65,57.9-90.21,34.88-236.33-33.46-244.74-105.27C138.31,132.21,303.23,58.6,375.81,33.75,514.34-13.69,680.28-8.12,700.37,46,713.14,80.43,656.17,105.2,637.21,212.69Z"/><path class="cls-1" d="M299.11,214.12a108.81,108.81,0,0,0,13,10.67c17.74,12.56,50.45,28.69,78.19,3.36"/><path class="cls-1" d="M337.21,237.74a21.64,21.64,0,0,1,39.88-.6"/><path class="cls-1" d="M463.53,143c-.77,5.36,51.32,60.51,100.34,3.83"/><path class="cls-1" d="M483.43,162.35c16.76-26.53,51.07-14.59,58.12,3.06"/><path class="cls-2" d="M377.91,349.42H4L145.7,57.59l353.87-1.53Q438.73,202.73,377.91,349.42Z"/><text class="cls-3" transform="translate(272.28 187.13)">X</text><text class="cls-4" transform="translate(43.98 92.4)">T<tspan class="cls-5" x="21.64" y="0">X</tspan><tspan class="cls-6" x="35.05" y="0">V</tspan></text><line class="cls-7" x1="257.71" y1="205.12" x2="246.9" y2="193.48"/><line class="cls-7" x1="246.9" y1="205.12" x2="257.71" y2="193.48"/><text class="cls-3" transform="translate(670.16 268.2)">V</text><text class="cls-8" transform="translate(92.64 284.17)">ω<tspan class="cls-9" x="34.06" y="0">x</tspan></text></g></g></svg>